<?xml version="1.0" standalone="no"?>
<!DOCTYPE svg PUBLIC "-//W3C//DTD SVG 20010904//EN"
 "http://www.w3.org/TR/2001/REC-SVG-20010904/DTD/svg10.dtd">
<svg version="1.0" xmlns="http://www.w3.org/2000/svg"
 width="450.000000pt" height="450.000000pt" viewBox="0 0 450.000000 450.000000"
 preserveAspectRatio="xMidYMid meet">
<metadata>
Created by potrace 1.10, written by Peter Selinger 2001-2011
</metadata>
<g transform="translate(0.000000,450.000000) scale(0.100000,-0.100000)"
fill="#000000" stroke="none">
<path d="M1935 3686 c-198 -95 -411 -198 -473 -229 -62 -31 -126 -59 -143 -62
-16 -4 -36 -16 -44 -28 -20 -29 -19 -80 3 -99 9 -8 115 -63 235 -121 l217
-106 0 -100 0 -100 -45 20 c-27 12 -62 19 -88 18 -26 -2 -52 4 -68 15 -15 9
-50 19 -78 23 -80 9 -159 -29 -207 -102 l-15 -24 -39 39 c-22 22 -63 52 -92
67 -48 25 -63 28 -153 28 -110 0 -148 -13 -220 -76 -178 -156 -107 -442 121
-489 l53 -11 3 -317 c3 -287 5 -320 22 -352 36 -68 97 -117 168 -134 25 -6 26
-8 17 -39 -17 -53 -14 -225 6 -297 26 -102 81 -195 160 -275 112 -112 234
-166 381 -166 235 0 408 152 449 394 5 33 8 36 26 27 11 -6 41 -10 67 -10 26
1 67 3 92 3 26 1 44 -2 43 -8 -2 -5 -12 -37 -24 -70 -53 -151 26 -322 173
-371 141 -46 282 9 353 137 27 48 30 63 30 139 0 68 -5 93 -22 126 l-22 41 87
5 c140 9 248 62 320 159 35 48 39 50 73 45 56 -9 131 18 186 68 153 138 157
410 8 505 l-44 28 31 18 c148 87 236 283 208 461 -30 187 -166 288 -305 225
-39 -17 -41 -17 -78 2 -29 15 -51 18 -98 15 l-60 -4 -47 47 c-30 30 -66 53
-99 65 l-53 19 0 103 c0 89 2 103 18 109 9 3 86 39 171 80 85 40 158 73 163
73 4 0 8 -7 8 -15 0 -9 -9 -15 -24 -15 -36 0 -47 -22 -52 -107 -7 -109 -11
-123 -34 -123 -24 0 -43 -34 -35 -60 8 -24 54 -50 90 -50 14 0 34 9 45 20 17
17 20 33 20 122 0 79 3 99 12 90 15 -15 50 -16 64 -2 7 7 18 -17 34 -72 13
-46 25 -89 28 -95 3 -8 -5 -13 -22 -13 -52 0 -57 -72 -9 -110 31 -24 80 -26
111 -4 45 31 45 42 -9 211 -28 87 -56 164 -62 171 -6 8 -23 12 -39 10 -25 -4
-28 -2 -28 25 0 16 11 42 25 59 52 62 31 81 -209 198 -110 54 -347 170 -525
259 -242 120 -332 161 -360 161 -26 0 -136 -48 -396 -174z m527 -7 c49 -24
236 -118 418 -208 181 -90 330 -167 330 -171 0 -3 -59 -34 -131 -69 l-131 -62
-55 26 c-31 14 -57 25 -59 25 -2 0 -4 -80 -4 -179 l0 -179 -53 -6 c-29 -4 -75
-17 -101 -29 l-49 -23 -71 20 c-58 16 -103 20 -241 20 -152 0 -180 -3 -266
-26 -53 -14 -119 -38 -147 -52 l-52 -26 0 240 c0 132 -4 240 -9 240 -5 0 -32
-11 -62 -23 l-53 -24 -140 70 -140 69 105 54 c57 29 127 63 154 75 28 12 82
39 121 61 40 21 161 82 270 134 232 111 230 111 366 43z m-1424 -895 c28 -14
65 -43 82 -64 58 -73 64 -98 70 -307 l5 -191 70 27 70 27 5 231 c5 228 5 232
29 257 33 35 70 34 106 -4 29 -30 77 -41 90 -20 13 21 57 10 91 -24 54 -54 44
-124 -20 -151 -34 -15 -98 -6 -111 15 -4 6 -13 10 -21 10 -12 0 -14 -49 -14
-325 l0 -326 -25 -24 c-30 -31 -77 -33 -105 -5 -18 18 -20 33 -20 130 0 61 -4
110 -9 110 -5 0 -37 -11 -72 -24 l-64 -24 -5 -192 c-5 -187 -6 -192 -29 -211
-26 -21 -68 -24 -92 -6 -38 29 -39 46 -39 472 0 457 -2 478 -56 491 -53 13
-83 -35 -44 -71 46 -42 7 -105 -66 -105 -38 0 -100 65 -109 114 -14 74 30 157
104 196 52 27 116 25 179 -6z m1419 -79 c76 -32 123 -107 123 -197 0 -120 -91
-197 -232 -198 l-68 0 0 -130 c0 -117 -2 -132 -20 -150 -27 -27 -81 -26 -106
1 -18 20 -19 42 -22 316 -2 253 -1 299 13 319 17 26 45 44 90 55 44 12 178 2
222 -16z m495 -2 c127 -57 169 -227 80 -327 -34 -37 -112 -66 -184 -66 l-68 0
0 -129 c0 -128 0 -130 -26 -150 -15 -12 -36 -21 -48 -21 -27 0 -66 34 -66 58
-5 263 0 584 9 601 13 23 41 41 86 52 48 13 169 3 217 -18z m-1001 -124 c21
-7 49 -23 61 -36 23 -24 23 -29 26 -297 l3 -273 -26 -32 c-32 -38 -64 -40
-102 -7 l-28 24 0 131 c0 81 -4 131 -10 130 -5 0 -37 -10 -70 -23 l-60 -23 -5
-77 c-4 -66 -8 -81 -29 -97 -30 -25 -66 -24 -91 1 -17 17 -20 34 -20 123 0 86
-4 106 -20 127 -25 32 -25 76 1 146 34 89 106 156 199 185 38 11 128 10 171
-2z m1324 -13 c32 -32 37 -69 33 -224 -3 -128 -2 -132 18 -132 11 0 33 14 50
31 29 30 29 31 30 163 1 77 6 142 13 154 16 29 45 36 80 17 51 -26 66 -67 66
-175 -1 -105 -18 -158 -75 -230 -33 -41 -136 -100 -176 -100 -18 0 -28 -9 -39
-37 -38 -90 -125 -147 -225 -147 -70 0 -114 16 -162 62 -61 56 -56 144 8 150
25 2 35 -4 61 -36 19 -23 44 -42 60 -45 29 -6 113 24 113 40 0 5 -19 17 -42
28 -74 34 -108 112 -72 163 22 31 58 28 83 -7 11 -16 30 -31 41 -34 19 -5 20
-1 20 166 0 162 1 172 22 194 28 30 63 29 93 -1z m-758 -338 c20 -19 23 -31
23 -104 0 -74 -2 -84 -22 -98 -33 -23 -64 -19 -87 10 -17 21 -21 41 -21 94 0
53 4 73 21 94 25 32 55 33 86 4z m-142 -328 c0 -12 -9 -29 -20 -36 -18 -12
-24 -11 -43 2 -12 8 -22 24 -22 34 0 10 10 26 22 34 19 13 25 14 43 2 11 -7
20 -24 20 -36z m-574 9 c35 -37 46 -88 29 -130 -18 -42 -44 -56 -121 -62 -154
-11 -264 -108 -288 -252 -25 -157 65 -304 204 -336 115 -26 205 45 205 161 l0
39 -68 -35 c-76 -40 -104 -39 -147 3 -20 20 -25 36 -25 73 0 56 11 68 125 134
66 38 85 45 112 40 l33 -6 0 105 c0 91 3 108 21 131 30 38 71 56 142 63 84 7
142 -10 188 -56 71 -71 74 -168 8 -235 -22 -21 -39 -40 -39 -42 0 -7 75 -54
87 -54 7 0 13 8 13 18 0 9 6 26 13 38 44 76 68 129 87 194 13 41 32 85 43 98
47 51 147 51 194 0 11 -13 33 -63 49 -112 30 -96 60 -149 87 -154 15 -3 17 11
19 129 3 132 3 132 31 153 38 28 160 30 229 3 130 -50 196 -227 132 -355 -49
-99 -133 -145 -269 -146 -89 -1 -89 -1 -109 29 l-20 30 -32 -32 c-39 -40 -92
-45 -124 -13 -22 22 -23 25 -24 85 -1 39 -2 40 -40 43 -22 2 -50 1 -64 -3 -21
-5 -23 -10 -19 -38 9 -65 -23 -106 -86 -107 -27 0 -45 7 -62 25 -14 13 -25 29
-25 35 0 5 -4 10 -10 10 -5 0 -10 -5 -10 -12 0 -6 -10 -22 -22 -35 -47 -51
-128 -13 -128 61 0 24 -8 36 -35 54 -33 21 -35 25 -35 77 0 52 1 55 25 55 15
0 31 10 42 26 15 23 15 29 2 52 -16 30 -57 43 -96 33 l-28 -7 -6 -265 c-5
-244 -7 -269 -29 -323 -29 -75 -86 -138 -159 -173 -49 -24 -68 -28 -146 -28
-80 0 -97 4 -157 32 -153 72 -235 189 -277 398 -19 99 17 269 79 366 69 106
214 202 328 216 29 3 57 12 63 19 21 26 78 17 110 -17z m405 6 c7 -18 -13 -45
-33 -45 -17 0 -27 24 -19 45 7 20 45 19 52 0z m528 9 c20 -8 21 -38 1 -54 -30
-25 -70 15 -45 45 14 17 21 18 44 9z m698 -74 c38 -29 52 -72 45 -138 -13
-146 -120 -248 -186 -178 -25 26 -25 46 -2 131 6 22 11 59 11 82 0 106 65 156
132 103z m-763 -699 c51 -40 72 -72 78 -119 8 -61 -18 -123 -67 -157 -139 -96
-304 28 -255 192 33 112 157 154 244 84z"/>
<path d="M2305 3435 c-5 -2 -50 -15 -98 -30 -92 -27 -116 -49 -95 -87 12 -24
48 -22 140 7 l77 24 96 -29 c106 -33 135 -29 135 15 0 32 -25 47 -128 79 -79
25 -104 29 -127 21z"/>
<path d="M2280 2511 l0 -71 50 0 c61 0 90 24 90 74 0 44 -19 58 -86 64 l-54 4
0 -71z"/>
<path d="M2780 2510 l0 -70 50 0 c58 0 90 24 90 68 0 48 -33 72 -99 72 l-41 0
0 -70z"/>
<path d="M1831 2440 c-48 -11 -81 -49 -88 -98 -7 -50 0 -52 81 -21 l56 22 0
53 c0 30 -3 54 -7 53 -5 -1 -23 -5 -42 -9z"/>
<path d="M2910 1575 l0 -115 25 0 c34 0 80 24 99 52 9 12 16 42 16 66 0 59
-49 112 -104 112 l-36 0 0 -115z"/>
<path d="M2497 1647 c-33 -78 -34 -77 22 -77 l50 0 -18 52 c-10 28 -23 54 -29
56 -6 2 -18 -12 -25 -31z"/>
<path d="M1033 3134 c-15 -24 -15 -29 -2 -53 29 -52 99 -35 99 24 0 57 -66 76
-97 29z"/>
<path d="M1252 3098 c-15 -15 -15 -61 0 -76 7 -7 41 -12 83 -12 57 0 75 4 88
18 21 23 22 46 1 66 -19 20 -153 23 -172 4z"/>
<path d="M3699 3043 c-18 -20 -25 -197 -10 -235 8 -22 17 -28 39 -28 15 0 33
5 40 12 15 15 16 221 2 249 -13 23 -53 25 -71 2z"/>
<path d="M3785 2206 c-12 -18 -13 -30 -6 -49 19 -50 94 -44 107 9 14 56 -69
89 -101 40z"/>
<path d="M692 2058 c-8 -8 -12 -52 -12 -130 0 -118 0 -119 26 -130 49 -23 58
-4 64 122 4 83 2 118 -8 131 -15 21 -52 25 -70 7z"/>
<path d="M3737 2002 c-20 -22 -22 -63 -5 -80 20 -20 76 -15 88 7 15 29 12 56
-8 74 -24 22 -55 21 -75 -1z"/>
<path d="M737 1602 c-20 -22 -22 -63 -5 -80 18 -18 63 -14 81 6 23 26 21 58
-5 76 -29 21 -51 20 -71 -2z"/>
<path d="M847 1402 c-33 -37 -11 -92 37 -92 48 0 73 62 38 93 -24 22 -55 21
-75 -1z"/>
<path d="M3254 1185 c-15 -23 -15 -27 0 -50 16 -25 19 -25 149 -25 90 0 137 4
145 12 19 19 15 66 -7 78 -11 5 -76 10 -145 10 -123 0 -126 -1 -142 -25z"/>
<path d="M3042 1038 c-7 -7 -12 -24 -12 -38 0 -36 17 -50 62 -50 29 0 41 6 54
25 15 23 15 27 0 50 -13 19 -25 25 -54 25 -21 0 -43 -5 -50 -12z"/>
<path d="M2110 950 c-38 -38 -15 -90 39 -90 34 0 51 17 51 51 0 54 -52 77 -90
39z"/>
</g>
</svg>
